<mxfile host="app.diagrams.net" modified="2023-10-18T13:47:07.250Z" agent="Mozilla/5.0 (Windows NT 10.0; Win64; x64) AppleWebKit/537.36 (KHTML, like Gecko) Chrome/118.0.0.0 Safari/537.36" etag="aqnBeJGMjINb7UqoXYb1" version="22.0.4" type="device">
  <diagram name="Страница — 1" id="rwqlOv3aDMIMBUQ4C7vR">
    <mxGraphModel dx="1687" dy="969" grid="1" gridSize="10" guides="1" tooltips="1" connect="1" arrows="1" fold="1" page="1" pageScale="1" pageWidth="827" pageHeight="1169" math="0" shadow="0">
      <root>
        <mxCell id="0" />
        <mxCell id="1" parent="0" />
        <mxCell id="Fz46aYrQsW3Do-q8UEc8-2" style="edgeStyle=orthogonalEdgeStyle;rounded=0;orthogonalLoop=1;jettySize=auto;html=1;" edge="1" parent="1" source="Fz46aYrQsW3Do-q8UEc8-3" target="Fz46aYrQsW3Do-q8UEc8-5">
          <mxGeometry relative="1" as="geometry" />
        </mxCell>
        <mxCell id="Fz46aYrQsW3Do-q8UEc8-3" value="начало" style="rounded=1;whiteSpace=wrap;html=1;" vertex="1" parent="1">
          <mxGeometry x="348" y="30" width="106" height="40" as="geometry" />
        </mxCell>
        <mxCell id="Fz46aYrQsW3Do-q8UEc8-4" style="edgeStyle=orthogonalEdgeStyle;rounded=0;orthogonalLoop=1;jettySize=auto;html=1;" edge="1" parent="1" source="Fz46aYrQsW3Do-q8UEc8-5">
          <mxGeometry relative="1" as="geometry">
            <mxPoint x="401" y="190" as="targetPoint" />
          </mxGeometry>
        </mxCell>
        <mxCell id="Fz46aYrQsW3Do-q8UEc8-5" value="ввод q" style="shape=parallelogram;html=1;strokeWidth=2;perimeter=parallelogramPerimeter;whiteSpace=wrap;rounded=1;arcSize=12;size=0.23;" vertex="1" parent="1">
          <mxGeometry x="351" y="100" width="100" height="60" as="geometry" />
        </mxCell>
        <mxCell id="Fz46aYrQsW3Do-q8UEc8-6" style="edgeStyle=orthogonalEdgeStyle;rounded=0;orthogonalLoop=1;jettySize=auto;html=1;" edge="1" parent="1" source="Fz46aYrQsW3Do-q8UEc8-8">
          <mxGeometry relative="1" as="geometry">
            <mxPoint x="401" y="320" as="targetPoint" />
            <Array as="points">
              <mxPoint x="401" y="305" />
              <mxPoint x="402" y="305" />
            </Array>
          </mxGeometry>
        </mxCell>
        <mxCell id="Fz46aYrQsW3Do-q8UEc8-7" value="Да" style="edgeLabel;html=1;align=center;verticalAlign=middle;resizable=0;points=[];" vertex="1" connectable="0" parent="Fz46aYrQsW3Do-q8UEc8-6">
          <mxGeometry x="-0.1622" y="1" relative="1" as="geometry">
            <mxPoint as="offset" />
          </mxGeometry>
        </mxCell>
        <mxCell id="Fz46aYrQsW3Do-q8UEc8-39" style="edgeStyle=orthogonalEdgeStyle;rounded=0;orthogonalLoop=1;jettySize=auto;html=1;" edge="1" parent="1" source="Fz46aYrQsW3Do-q8UEc8-8" target="Fz46aYrQsW3Do-q8UEc8-38">
          <mxGeometry relative="1" as="geometry" />
        </mxCell>
        <mxCell id="Fz46aYrQsW3Do-q8UEc8-8" value="пока _ меньше либо равна q" style="strokeWidth=2;html=1;shape=mxgraph.flowchart.decision;whiteSpace=wrap;" vertex="1" parent="1">
          <mxGeometry x="351" y="190" width="100" height="100" as="geometry" />
        </mxCell>
        <mxCell id="Fz46aYrQsW3Do-q8UEc8-11" style="edgeStyle=orthogonalEdgeStyle;rounded=0;orthogonalLoop=1;jettySize=auto;html=1;" edge="1" parent="1" source="Fz46aYrQsW3Do-q8UEc8-9">
          <mxGeometry relative="1" as="geometry">
            <mxPoint x="398" y="420" as="targetPoint" />
          </mxGeometry>
        </mxCell>
        <mxCell id="Fz46aYrQsW3Do-q8UEc8-9" value="ввод n,k" style="shape=parallelogram;html=1;strokeWidth=2;perimeter=parallelogramPerimeter;whiteSpace=wrap;rounded=1;arcSize=12;size=0.23;" vertex="1" parent="1">
          <mxGeometry x="348" y="320" width="100" height="60" as="geometry" />
        </mxCell>
        <mxCell id="Fz46aYrQsW3Do-q8UEc8-12" style="edgeStyle=orthogonalEdgeStyle;rounded=0;orthogonalLoop=1;jettySize=auto;html=1;" edge="1" parent="1" source="Fz46aYrQsW3Do-q8UEc8-10" target="Fz46aYrQsW3Do-q8UEc8-13">
          <mxGeometry relative="1" as="geometry">
            <mxPoint x="398" y="550" as="targetPoint" />
          </mxGeometry>
        </mxCell>
        <mxCell id="Fz46aYrQsW3Do-q8UEc8-10" value="заполнение массива lst, введенными с клавиатуры элементами" style="rounded=1;whiteSpace=wrap;html=1;absoluteArcSize=1;arcSize=14;strokeWidth=2;" vertex="1" parent="1">
          <mxGeometry x="351" y="420" width="100" height="100" as="geometry" />
        </mxCell>
        <mxCell id="Fz46aYrQsW3Do-q8UEc8-15" style="edgeStyle=orthogonalEdgeStyle;rounded=0;orthogonalLoop=1;jettySize=auto;html=1;" edge="1" parent="1" source="Fz46aYrQsW3Do-q8UEc8-13">
          <mxGeometry relative="1" as="geometry">
            <mxPoint x="401" y="680" as="targetPoint" />
          </mxGeometry>
        </mxCell>
        <mxCell id="Fz46aYrQsW3Do-q8UEc8-13" value="Сортировка массива по убыванию&lt;br&gt;z = n" style="rounded=1;whiteSpace=wrap;html=1;absoluteArcSize=1;arcSize=14;strokeWidth=2;" vertex="1" parent="1">
          <mxGeometry x="351" y="550" width="100" height="100" as="geometry" />
        </mxCell>
        <mxCell id="Fz46aYrQsW3Do-q8UEc8-17" style="edgeStyle=orthogonalEdgeStyle;rounded=0;orthogonalLoop=1;jettySize=auto;html=1;" edge="1" parent="1" source="Fz46aYrQsW3Do-q8UEc8-16">
          <mxGeometry relative="1" as="geometry">
            <mxPoint x="401" y="830" as="targetPoint" />
          </mxGeometry>
        </mxCell>
        <mxCell id="Fz46aYrQsW3Do-q8UEc8-18" value="Да" style="edgeLabel;html=1;align=center;verticalAlign=middle;resizable=0;points=[];" vertex="1" connectable="0" parent="Fz46aYrQsW3Do-q8UEc8-17">
          <mxGeometry x="-0.2766" y="-1" relative="1" as="geometry">
            <mxPoint y="3" as="offset" />
          </mxGeometry>
        </mxCell>
        <mxCell id="Fz46aYrQsW3Do-q8UEc8-32" style="edgeStyle=orthogonalEdgeStyle;rounded=0;orthogonalLoop=1;jettySize=auto;html=1;" edge="1" parent="1" source="Fz46aYrQsW3Do-q8UEc8-16">
          <mxGeometry relative="1" as="geometry">
            <mxPoint x="510" y="740" as="targetPoint" />
          </mxGeometry>
        </mxCell>
        <mxCell id="Fz46aYrQsW3Do-q8UEc8-35" value="Нет" style="edgeLabel;html=1;align=center;verticalAlign=middle;resizable=0;points=[];" vertex="1" connectable="0" parent="Fz46aYrQsW3Do-q8UEc8-32">
          <mxGeometry x="-0.22" y="-1" relative="1" as="geometry">
            <mxPoint x="2" as="offset" />
          </mxGeometry>
        </mxCell>
        <mxCell id="Fz46aYrQsW3Do-q8UEc8-16" value="пока n&amp;gt;0 и k&amp;gt;0 и i меньше длинны массива" style="strokeWidth=2;html=1;shape=mxgraph.flowchart.decision;whiteSpace=wrap;" vertex="1" parent="1">
          <mxGeometry x="326.75" y="680" width="148.5" height="120" as="geometry" />
        </mxCell>
        <mxCell id="Fz46aYrQsW3Do-q8UEc8-20" style="edgeStyle=orthogonalEdgeStyle;rounded=0;orthogonalLoop=1;jettySize=auto;html=1;" edge="1" parent="1" source="Fz46aYrQsW3Do-q8UEc8-19">
          <mxGeometry relative="1" as="geometry">
            <mxPoint x="401" y="970" as="targetPoint" />
          </mxGeometry>
        </mxCell>
        <mxCell id="Fz46aYrQsW3Do-q8UEc8-19" value="Отнимаем позицию самой ближайшей к норке мышки от норки" style="rounded=1;whiteSpace=wrap;html=1;absoluteArcSize=1;arcSize=14;strokeWidth=2;" vertex="1" parent="1">
          <mxGeometry x="351" y="830" width="100" height="100" as="geometry" />
        </mxCell>
        <mxCell id="Fz46aYrQsW3Do-q8UEc8-23" style="edgeStyle=orthogonalEdgeStyle;rounded=0;orthogonalLoop=1;jettySize=auto;html=1;entryX=0.5;entryY=0;entryDx=0;entryDy=0;" edge="1" parent="1" source="Fz46aYrQsW3Do-q8UEc8-21" target="Fz46aYrQsW3Do-q8UEc8-22">
          <mxGeometry relative="1" as="geometry" />
        </mxCell>
        <mxCell id="Fz46aYrQsW3Do-q8UEc8-24" value="Да" style="edgeLabel;html=1;align=center;verticalAlign=middle;resizable=0;points=[];" vertex="1" connectable="0" parent="Fz46aYrQsW3Do-q8UEc8-23">
          <mxGeometry x="-0.64" y="2" relative="1" as="geometry">
            <mxPoint as="offset" />
          </mxGeometry>
        </mxCell>
        <mxCell id="Fz46aYrQsW3Do-q8UEc8-25" style="edgeStyle=orthogonalEdgeStyle;rounded=0;orthogonalLoop=1;jettySize=auto;html=1;" edge="1" parent="1" source="Fz46aYrQsW3Do-q8UEc8-21">
          <mxGeometry relative="1" as="geometry">
            <mxPoint x="320" y="1020" as="targetPoint" />
          </mxGeometry>
        </mxCell>
        <mxCell id="Fz46aYrQsW3Do-q8UEc8-26" value="Нет" style="edgeLabel;html=1;align=center;verticalAlign=middle;resizable=0;points=[];" vertex="1" connectable="0" parent="Fz46aYrQsW3Do-q8UEc8-25">
          <mxGeometry x="-0.2384" y="-1" relative="1" as="geometry">
            <mxPoint x="-3" as="offset" />
          </mxGeometry>
        </mxCell>
        <mxCell id="Fz46aYrQsW3Do-q8UEc8-21" value="если n&amp;gt;0" style="strokeWidth=2;html=1;shape=mxgraph.flowchart.decision;whiteSpace=wrap;" vertex="1" parent="1">
          <mxGeometry x="351" y="970" width="100" height="100" as="geometry" />
        </mxCell>
        <mxCell id="Fz46aYrQsW3Do-q8UEc8-31" style="edgeStyle=orthogonalEdgeStyle;rounded=0;orthogonalLoop=1;jettySize=auto;html=1;entryX=0.5;entryY=1;entryDx=0;entryDy=0;" edge="1" parent="1" source="Fz46aYrQsW3Do-q8UEc8-22" target="Fz46aYrQsW3Do-q8UEc8-27">
          <mxGeometry relative="1" as="geometry" />
        </mxCell>
        <mxCell id="Fz46aYrQsW3Do-q8UEc8-22" value="s+=1" style="rounded=1;whiteSpace=wrap;html=1;absoluteArcSize=1;arcSize=14;strokeWidth=2;" vertex="1" parent="1">
          <mxGeometry x="351" y="1100" width="100" height="30" as="geometry" />
        </mxCell>
        <mxCell id="Fz46aYrQsW3Do-q8UEc8-28" style="edgeStyle=orthogonalEdgeStyle;rounded=0;orthogonalLoop=1;jettySize=auto;html=1;" edge="1" parent="1" source="Fz46aYrQsW3Do-q8UEc8-27">
          <mxGeometry relative="1" as="geometry">
            <mxPoint x="270" y="980" as="targetPoint" />
          </mxGeometry>
        </mxCell>
        <mxCell id="Fz46aYrQsW3Do-q8UEc8-27" value="s-=1" style="rounded=1;whiteSpace=wrap;html=1;absoluteArcSize=1;arcSize=14;strokeWidth=2;" vertex="1" parent="1">
          <mxGeometry x="220" y="1005" width="100" height="30" as="geometry" />
        </mxCell>
        <mxCell id="Fz46aYrQsW3Do-q8UEc8-29" value="i+=1" style="rounded=1;whiteSpace=wrap;html=1;absoluteArcSize=1;arcSize=14;strokeWidth=2;" vertex="1" parent="1">
          <mxGeometry x="220" y="950" width="100" height="30" as="geometry" />
        </mxCell>
        <mxCell id="Fz46aYrQsW3Do-q8UEc8-30" style="edgeStyle=orthogonalEdgeStyle;rounded=0;orthogonalLoop=1;jettySize=auto;html=1;entryX=0;entryY=0.5;entryDx=0;entryDy=0;entryPerimeter=0;exitX=0.5;exitY=0;exitDx=0;exitDy=0;" edge="1" parent="1" source="Fz46aYrQsW3Do-q8UEc8-29" target="Fz46aYrQsW3Do-q8UEc8-16">
          <mxGeometry relative="1" as="geometry" />
        </mxCell>
        <mxCell id="Fz46aYrQsW3Do-q8UEc8-36" value="Вывод на &lt;br&gt;экран s" style="shape=parallelogram;html=1;strokeWidth=2;perimeter=parallelogramPerimeter;whiteSpace=wrap;rounded=1;arcSize=12;size=0.23;" vertex="1" parent="1">
          <mxGeometry x="500" y="710" width="100" height="60" as="geometry" />
        </mxCell>
        <mxCell id="Fz46aYrQsW3Do-q8UEc8-37" style="edgeStyle=orthogonalEdgeStyle;rounded=0;orthogonalLoop=1;jettySize=auto;html=1;entryX=0.5;entryY=0;entryDx=0;entryDy=0;entryPerimeter=0;exitX=0.58;exitY=0.017;exitDx=0;exitDy=0;exitPerimeter=0;" edge="1" parent="1" source="Fz46aYrQsW3Do-q8UEc8-36" target="Fz46aYrQsW3Do-q8UEc8-8">
          <mxGeometry relative="1" as="geometry">
            <Array as="points">
              <mxPoint x="600" y="711" />
              <mxPoint x="600" y="170" />
              <mxPoint x="401" y="170" />
            </Array>
          </mxGeometry>
        </mxCell>
        <mxCell id="Fz46aYrQsW3Do-q8UEc8-38" value="конец" style="rounded=1;whiteSpace=wrap;html=1;" vertex="1" parent="1">
          <mxGeometry x="475.25" y="220" width="106" height="40" as="geometry" />
        </mxCell>
      </root>
    </mxGraphModel>
  </diagram>
</mxfile>
